# xmcd
#
# Track frame offsets:
#	150
#	20286
#	32895
#	51725
#	75305
#	89738
#	112973
#	131460
#	146591
#	170114
#	187904
#
# Disc length: 2844 seconds
#
# Revision: 1
# Processed by: cddbd v1.5.2PL0 Copyright (c) Steve Scherf et al.
# Submitted via: audiograbber 1.83.01
#
DISCID=930b1a0b
DTITLE=Stephanie Lee - At the Edge of the Rez
DYEAR=2008
DGENRE=Blues
TTITLE0=Killed a Man for Forty Dollars
TTITLE1=Love Is My Soul's Home
TTITLE2=At The Edge Of The Rez
TTITLE3=The Power Of Your Nothing
TTITLE4=Element of Surprise
TTITLE5=Waited Out My Reasons For Running
TTITLE6=Because The Child Wants To Know
TTITLE7=Yeah Baby I'm Cold
TTITLE8=Mel And Me
TTITLE9=Cry My Soul
TTITLE10=Summertime
EXTD=
EXTT0=
EXTT1=
EXTT2=
EXTT3=
EXTT4=
EXTT5=
EXTT6=
EXTT7=
EXTT8=
EXTT9=
EXTT10=
PLAYORDER=
